<svg xmlns="http://www.w3.org/2000/svg" xmlns:xlink="http://www.w3.org/1999/xlink" viewBox="0 0 121.54 123.03"><defs><style>.cls-1,.cls-3,.cls-5,.cls-6,.cls-7{fill:none;}.cls-2,.cls-8{fill:#23254e;}.cls-3,.cls-5,.cls-6,.cls-7{stroke:#23254e;stroke-miterlimit:10;}.cls-3{stroke-width:1.88px;}.cls-4{clip-path:url(#clip-path);}.cls-5{stroke-width:1.53px;}.cls-6{stroke-width:1.18px;}.cls-7{stroke-width:2.35px;}.cls-8{font-size:18.83px;font-family:LouisGeorgeCafe, Louis George Café;}</style><clipPath id="clip-path"><path class="cls-1" d="M74.33,82.27l-14.77-.53A3.62,3.62,0,0,1,56.08,78l.16-4.34c-1.59-3.31.18-4.79,3.73-3.47l14.78.53c3.39-.29,5.19,1.32,3.47,3.73l-.15,4.35A3.61,3.61,0,0,1,74.33,82.27Z"/></clipPath></defs><g id="Layer_2" data-name="Layer 2"><g id="desktop"><path class="cls-2" d="M48.16,42c.46,1.38,1.36,1.93,1.87,2.76.95,1.5.9,1.88-.65,2.64-2.26,1.1-4.53,2.18-6.79,3.27-.73.35-1.57.69-1.35,1.71s1,1.08,1.91,1c.6,0,1.2,0,1.81,0,2.82,0,4.21,1.36,4.34,4.21.14,3.06-.69,6-1.25,8.93-.39,2-.87,4-1.09,6.08a16.28,16.28,0,0,0,4.12,12.81,16.9,16.9,0,0,1,4.46,10,26.78,26.78,0,0,1-.1,4.82c-.09.73-.24,1.35-1.12,1.26s-.83-.73-.78-1.37A22.23,22.23,0,0,0,53.4,94c-.57-3.14-2.36-5.62-4.32-8A17.9,17.9,0,0,1,45,72.82a51.78,51.78,0,0,1,1.14-6.68,54.39,54.39,0,0,0,1.24-7.27c.21-2.85-.41-3.53-3.17-3.53-.65,0-1.31,0-2,0a3.22,3.22,0,0,1-2.91-2.45A3.1,3.1,0,0,1,41,49.32c1.24-.67,2.51-1.28,3.8-1.83.78-.34.85-.71.3-1.3-.41-.44-.83-.87-1.21-1.34a2.15,2.15,0,0,1-.31-2.52,2.12,2.12,0,0,1,2.09-1.21A1.91,1.91,0,0,0,47,41c1.68-1.07,2.42-1,3.81.39,3.24,3.19,4.84,7.22,5.8,11.55a45.79,45.79,0,0,1,.56,15c-.12,1.09.17,1.33,1.23,1.32,4.32-.06,8.65-.09,13,0a18.49,18.49,0,0,1,9,2.33,9.05,9.05,0,0,1,4.25,4.9c.53,1.49.18,2.69-.9,3.29a4.88,4.88,0,0,0-2.51,3.49v.08a9.53,9.53,0,0,0,1.51,6.76,2.19,2.19,0,0,1,.31,1.67c-.4,2.73-.69,5.48-1,8.22-.1.73-.1,1.7-1.21,1.53s-.8-1.07-.7-1.81q.5-3.74,1-7.47a1.75,1.75,0,0,0-.37-1.53c-1.73-2-2-4.33-1.54-6.81S80,79,78.88,76.64a.86.86,0,0,1,.48-1.25.91.91,0,0,1,1.24.53c.25.49.41,1,.64,1.53s.54,1.07,1.22.75.33-.85.15-1.31A8,8,0,0,0,78,72.58a21.39,21.39,0,0,0-8.25-1.5c-4.38,0-8.75,0-13.12,0-1.36,0-1.78-.45-1.61-1.78a45.81,45.81,0,0,0-.59-17.07,21.43,21.43,0,0,0-4-8.37A5.72,5.72,0,0,0,48.16,42ZM45.58,43c-.34.14-.39.38-.15.67l1.8,2.17a.47.47,0,0,0,.66.07.57.57,0,0,0,.27-.32A7.88,7.88,0,0,0,45.58,43Z"/><path class="cls-2" d="M57.79,94.25c0-1.86,0-3.72,0-5.58,0-1.07.4-1.45,1.54-1.47a25.23,25.23,0,0,0,11.23-2.42,1.12,1.12,0,0,1,1.79.63,11.8,11.8,0,0,0,5.16,5.71,1.46,1.46,0,0,1,.88,1.55c-.14,2.56-.24,5.12-.35,7.68,0,.69-.25,1.23-1,1.18s-.9-.65-.87-1.32c.11-2.15.19-4.31.32-6.47a1.25,1.25,0,0,0-.62-1.37,13,13,0,0,1-4.51-4.76c-.32-.55-.58-.79-1.28-.48a25.72,25.72,0,0,1-9.23,1.94c-1,0-1.12.42-1.11,1.26,0,3.21,0,6.43,0,9.65,0,.7.1,1.55-.94,1.54s-1-.82-1-1.54c0-1.91,0-3.82,0-5.73Z"/><line class="cls-3" x1="54.21" y1="100.6" x2="58.74" y2="100.6"/><line class="cls-3" x1="76.73" y1="100.57" x2="81.01" y2="100.57"/><g class="cls-4"><circle class="cls-5" cx="67.14" cy="70.46" r="9.52"/><circle class="cls-5" cx="67.14" cy="70.46" r="6.97"/><circle class="cls-5" cx="67.14" cy="70.46" r="3.77"/></g><ellipse class="cls-6" cx="49.27" cy="49.94" rx="0.77" ry="0.35"/><path class="cls-5" d="M70.25,82.74a47,47,0,0,0,2.12,4.34"/><path class="cls-5" d="M56.21,82a30.65,30.65,0,0,1,2.26,6.71"/><polyline class="cls-7" points="12.52 62.2 12.52 121.85 110.17 121.85 110.17 62.2"/><text class="cls-8" transform="matrix(0.18, -0.98, 0.98, 0.18, 15.91, 56.94)">t</text><text class="cls-8" transform="translate(16.76 51.16) rotate(-72.11)">h</text><text class="cls-8" transform="translate(19.73 41.79) rotate(-60.98)">e</text><text class="cls-8" transform="translate(24.31 33.85) rotate(-51.84)"> </text><text class="cls-8" transform="matrix(0.71, -0.7, 0.7, 0.71, 26.89, 30.43)">t</text><text class="cls-8" transform="translate(30.75 26.28) rotate(-32.85)">h</text><text class="cls-8" transform="translate(38.91 21) rotate(-20.05)">e</text><text class="cls-8" transform="matrix(0.98, -0.19, 0.19, 0.98, 47.58, 17.93)">r</text><text class="cls-8" transform="translate(54.11 16.52) rotate(-3.28)">a</text><text class="cls-8" transform="translate(64.13 15.77) rotate(10.9)">p</text><text class="cls-8" transform="translate(74.22 17.72) rotate(22.14)">y</text><text class="cls-8" transform="translate(82.42 21.2) rotate(30.51)"> </text><text class="cls-8" transform="matrix(0.76, 0.65, -0.65, 0.76, 86.15, 23.02)">p</text><text class="cls-8" transform="translate(93.82 29.88) rotate(50.42)">l</text><text class="cls-8" transform="translate(96.36 32.45) rotate(60.11)">a</text><text class="cls-8" transform="translate(101.38 41.28) rotate(71.8)">c</text><text class="cls-8" transform="matrix(0.16, 0.99, -0.99, 0.16, 104.13, 49.53)">e</text></g></g></svg>