<?xml version="1.0" encoding="UTF-8"?><svg id="Layer_2" xmlns="http://www.w3.org/2000/svg" viewBox="0 0 286.04 51.23"><defs><style>.cls-1,.cls-2{fill:#263339;}.cls-2{stroke:#1d1d1b;stroke-miterlimit:10;}</style></defs><g id="Layer_1-2"><g><g><path class="cls-1" d="M63.92,42.72c.16,.08,.25,.19,.28,.35s-.01,.3-.13,.44c-.08,.1-.19,.16-.32,.17-.13,.01-.26-.01-.39-.07-.31-.17-.64-.31-1-.4s-.73-.15-1.12-.15c-.55,0-1.06,.09-1.52,.26-.46,.17-.86,.42-1.2,.74-.34,.32-.6,.7-.79,1.13-.19,.44-.28,.91-.28,1.44,0,.56,.1,1.07,.29,1.51,.2,.44,.47,.82,.81,1.13,.34,.31,.74,.55,1.2,.71,.46,.16,.95,.24,1.48,.24,.38,0,.75-.05,1.11-.14,.36-.09,.69-.23,1-.41,.13-.06,.26-.08,.4-.06,.14,.02,.25,.08,.33,.18,.12,.14,.17,.28,.13,.43s-.12,.26-.27,.34c-.23,.13-.5,.24-.8,.35s-.61,.18-.94,.24c-.32,.06-.64,.09-.96,.09-.68,0-1.31-.11-1.91-.32-.6-.21-1.13-.52-1.6-.92-.46-.4-.83-.88-1.09-1.45-.26-.57-.39-1.21-.39-1.93,0-.66,.13-1.27,.38-1.83s.6-1.04,1.05-1.46,.98-.73,1.58-.95c.6-.23,1.26-.34,1.98-.34,.49,0,.96,.06,1.42,.17,.46,.12,.88,.28,1.27,.51Z"/><path class="cls-1" d="M70.42,51.1c-.18,0-.33-.05-.46-.15-.13-.1-.2-.23-.2-.37v-7.92c0-.15,.06-.27,.17-.37s.25-.15,.41-.15h3.88c.53,0,1,.11,1.42,.33s.76,.52,1.01,.9c.25,.38,.37,.82,.37,1.31,0,.36-.08,.69-.23,1.01s-.36,.58-.62,.81c-.26,.23-.56,.4-.9,.51l-.31-.19c.32,.06,.6,.18,.86,.35,.25,.18,.46,.4,.62,.67s.24,.58,.25,.94c.02,.32,.04,.57,.07,.76,.03,.19,.07,.34,.13,.44s.14,.19,.24,.25c.13,.08,.22,.18,.26,.31,.04,.13,.02,.25-.08,.37-.06,.09-.14,.14-.24,.17-.1,.03-.21,.04-.31,.03-.1-.01-.2-.04-.28-.08-.14-.08-.28-.19-.43-.34s-.26-.37-.35-.65c-.09-.28-.13-.67-.13-1.15,0-.26-.05-.49-.15-.67-.1-.18-.23-.33-.38-.44-.16-.11-.33-.18-.53-.23-.2-.05-.4-.07-.61-.07h-3.14l.17-.22v3.33c0,.15-.05,.27-.14,.37s-.22,.15-.38,.15Zm.35-4.56h3.45c.27-.02,.53-.1,.77-.26s.43-.37,.58-.64c.15-.27,.22-.59,.22-.95,0-.44-.16-.82-.47-1.12-.31-.3-.71-.45-1.17-.45h-3.32l.11-.26v3.9l-.17-.23Z"/><path class="cls-1" d="M83.71,42.13h5.01c.16,0,.29,.05,.41,.15,.11,.1,.17,.22,.17,.37s-.06,.26-.17,.35c-.11,.09-.25,.13-.41,.13h-4.53l.13-.22v3.23l-.14-.14h3.91c.16,0,.3,.05,.41,.14,.11,.09,.17,.22,.17,.37,0,.15-.06,.26-.17,.35s-.25,.13-.41,.13h-3.87l.1-.13v3.32l-.08-.09h4.49c.16,0,.29,.05,.41,.15,.11,.1,.17,.22,.17,.35,0,.15-.06,.27-.17,.36-.11,.09-.25,.14-.41,.14h-5.01c-.16,0-.3-.05-.41-.15s-.17-.23-.17-.37v-7.92c0-.15,.06-.27,.17-.37s.25-.15,.41-.15Z"/><path class="cls-1" d="M98.43,43.46l-3.31,7.33c-.04,.1-.1,.19-.2,.25s-.19,.1-.3,.1c-.18,0-.31-.04-.39-.13s-.13-.19-.14-.31c0-.06,0-.12,.03-.19l3.64-8.06c.06-.12,.13-.21,.23-.27,.1-.06,.21-.08,.33-.08,.12,0,.23,.03,.33,.09,.1,.06,.17,.15,.2,.26l3.63,7.99c.03,.07,.04,.14,.04,.21,0,.15-.06,.28-.17,.37-.11,.09-.24,.14-.38,.14-.12,0-.23-.03-.32-.1s-.16-.15-.21-.26l-3.35-7.33h.32Zm-2.6,5.26l.48-1h4.18l.21,1h-4.87Z"/><path class="cls-1" d="M107.75,43.11c-.16,0-.29-.05-.41-.14-.11-.09-.17-.21-.17-.36s.06-.26,.17-.35,.25-.13,.41-.13h6.54c.16,0,.3,.05,.41,.14,.11,.09,.17,.21,.17,.36s-.06,.26-.17,.35c-.11,.09-.25,.13-.41,.13h-6.54Zm3.26,7.99c-.18,0-.32-.05-.43-.15-.11-.1-.16-.23-.16-.37v-7.91h1.2v7.91c0,.15-.06,.27-.17,.37s-.26,.15-.44,.15Z"/><path class="cls-1" d="M121.59,50.57c0,.15-.06,.27-.18,.37s-.26,.15-.42,.15c-.18,0-.32-.05-.43-.15-.11-.1-.16-.23-.16-.37v-7.92c0-.15,.06-.27,.17-.37s.26-.15,.44-.15c.16,0,.29,.05,.41,.15s.17,.23,.17,.37v7.92Z"/><path class="cls-1" d="M135.06,42.11c.17,0,.31,.05,.42,.14,.11,.09,.17,.21,.17,.35,0,.08-.02,.16-.06,.24l-3.67,7.92c-.06,.11-.13,.19-.23,.25-.1,.06-.2,.08-.32,.08-.1,0-.2-.04-.3-.1-.1-.06-.17-.13-.22-.24l-3.64-7.91s-.03-.07-.04-.12c0-.04-.01-.09-.01-.13,0-.15,.06-.28,.19-.37,.13-.09,.25-.14,.37-.14,.25,0,.44,.12,.55,.36l3.36,7.31h-.32l3.23-7.32c.11-.22,.29-.33,.52-.33Z"/><path class="cls-1" d="M141.77,42.13h5.01c.16,0,.29,.05,.41,.15,.11,.1,.17,.22,.17,.37s-.06,.26-.17,.35c-.11,.09-.25,.13-.41,.13h-4.53l.13-.22v3.23l-.14-.14h3.91c.16,0,.3,.05,.41,.14,.11,.09,.17,.22,.17,.37,0,.15-.06,.26-.17,.35s-.25,.13-.41,.13h-3.87l.1-.13v3.32l-.08-.09h4.49c.16,0,.29,.05,.41,.15,.11,.1,.17,.22,.17,.35,0,.15-.06,.27-.17,.36-.11,.09-.25,.14-.41,.14h-5.01c-.16,0-.3-.05-.41-.15s-.17-.23-.17-.37v-7.92c0-.15,.06-.27,.17-.37s.25-.15,.41-.15Z"/><path class="cls-1" d="M163.7,51.23c-.69,0-1.3-.09-1.83-.28-.52-.19-1.03-.49-1.52-.9-.07-.05-.12-.12-.16-.19-.04-.08-.06-.16-.06-.24,0-.14,.05-.26,.16-.37,.11-.11,.24-.16,.4-.16,.13,0,.25,.05,.35,.14,.37,.33,.76,.57,1.19,.74s.91,.26,1.44,.26c.41,0,.78-.06,1.11-.18,.33-.12,.59-.29,.79-.5,.2-.21,.29-.46,.29-.74,0-.34-.11-.62-.32-.85s-.5-.41-.87-.55-.8-.27-1.29-.38c-.43-.09-.83-.21-1.19-.34s-.67-.3-.94-.5-.47-.44-.62-.73-.22-.63-.22-1.02c0-.49,.14-.91,.42-1.28s.67-.65,1.17-.85c.5-.21,1.08-.31,1.72-.31,.57,0,1.11,.09,1.62,.26,.51,.17,.92,.41,1.23,.71,.19,.16,.28,.32,.28,.49,0,.12-.06,.23-.18,.34s-.25,.16-.4,.16c-.1,0-.2-.03-.28-.09-.16-.16-.36-.31-.61-.44-.25-.13-.52-.23-.8-.31-.29-.08-.57-.12-.87-.12-.43,0-.81,.06-1.14,.17s-.58,.28-.77,.48c-.18,.21-.27,.45-.27,.74,0,.32,.1,.59,.31,.8,.21,.21,.48,.38,.83,.51s.73,.25,1.15,.35c.46,.1,.88,.22,1.27,.35,.39,.13,.72,.3,1.01,.49,.28,.2,.5,.45,.65,.75,.15,.3,.23,.68,.23,1.12,0,.47-.15,.89-.44,1.26-.29,.37-.69,.66-1.19,.87-.5,.21-1.07,.32-1.7,.32Z"/><path class="cls-1" d="M172.56,43.11c-.16,0-.29-.05-.41-.14-.11-.09-.17-.21-.17-.36s.06-.26,.17-.35,.25-.13,.41-.13h6.54c.16,0,.3,.05,.41,.14,.11,.09,.17,.21,.17,.36s-.06,.26-.17,.35c-.11,.09-.25,.13-.41,.13h-6.54Zm3.26,7.99c-.18,0-.32-.05-.43-.15-.11-.1-.16-.23-.16-.37v-7.91h1.2v7.91c0,.15-.06,.27-.17,.37s-.26,.15-.44,.15Z"/><path class="cls-1" d="M192.2,42.11c.17,0,.3,.05,.41,.15,.1,.1,.16,.23,.16,.37v5.09c0,.66-.17,1.25-.5,1.77-.33,.52-.78,.93-1.34,1.24s-1.21,.46-1.93,.46-1.35-.15-1.92-.46-1.02-.72-1.35-1.24c-.33-.52-.5-1.11-.5-1.77v-5.09c0-.15,.06-.27,.17-.37s.26-.15,.44-.15c.15,0,.28,.05,.4,.15s.18,.23,.18,.37v5.09c0,.47,.12,.89,.35,1.26,.23,.37,.55,.66,.95,.87,.4,.21,.83,.31,1.29,.31,.49,0,.93-.1,1.34-.31s.73-.5,.97-.87c.24-.37,.37-.79,.37-1.26v-5.09c0-.15,.05-.27,.15-.37,.1-.1,.23-.15,.39-.15Z"/><path class="cls-1" d="M203.16,42.13c.69,0,1.3,.12,1.82,.35,.52,.23,.95,.56,1.3,.98,.35,.42,.61,.9,.78,1.44,.17,.54,.26,1.11,.26,1.71,0,.83-.16,1.58-.46,2.26-.31,.68-.77,1.22-1.39,1.62-.61,.4-1.39,.6-2.31,.6h-3.5c-.16,0-.3-.05-.41-.15s-.17-.23-.17-.37v-7.92c0-.15,.06-.27,.17-.37s.25-.15,.41-.15h3.5Zm-.14,7.97c.73,0,1.32-.16,1.77-.47,.45-.32,.78-.74,.99-1.27,.21-.53,.32-1.11,.32-1.74,0-.46-.06-.9-.18-1.32-.12-.42-.3-.79-.55-1.12-.25-.32-.57-.58-.96-.77-.39-.19-.86-.28-1.4-.28h-2.87l.11-.12v7.22l-.08-.13h2.84Z"/><path class="cls-1" d="M214.21,50.57c0,.15-.06,.27-.18,.37s-.26,.15-.42,.15c-.18,0-.32-.05-.43-.15-.11-.1-.16-.23-.16-.37v-7.92c0-.15,.06-.27,.17-.37s.26-.15,.44-.15c.16,0,.29,.05,.41,.15s.17,.23,.17,.37v7.92Z"/><path class="cls-1" d="M229.43,46.61c0,.66-.12,1.27-.35,1.83s-.56,1.05-.99,1.47c-.43,.42-.93,.74-1.5,.97-.58,.23-1.21,.35-1.91,.35s-1.32-.12-1.89-.35c-.58-.23-1.08-.56-1.51-.97-.43-.42-.75-.91-.98-1.47s-.34-1.17-.34-1.83,.12-1.27,.34-1.83,.56-1.05,.98-1.47c.43-.42,.93-.74,1.51-.97,.58-.23,1.21-.35,1.89-.35s1.33,.12,1.91,.35c.58,.23,1.08,.56,1.5,.97,.43,.42,.76,.91,.99,1.47s.35,1.17,.35,1.83Zm-1.22,0c0-.69-.15-1.31-.45-1.85-.3-.54-.71-.97-1.24-1.28-.53-.31-1.14-.46-1.84-.46s-1.29,.15-1.82,.46c-.53,.31-.95,.73-1.25,1.27-.3,.54-.45,1.16-.45,1.86s.15,1.31,.45,1.85c.3,.54,.71,.97,1.25,1.27,.53,.31,1.14,.46,1.82,.46s1.31-.15,1.84-.46c.53-.31,.94-.73,1.24-1.27,.3-.54,.45-1.16,.45-1.85Z"/></g><circle class="cls-2" cx="48.3" cy="47.98" r=".85"/><circle class="cls-2" cx="235.78" cy="47.98" r=".85"/><g><path class="cls-1" d="M2.94,23.54c.42,.18,.89,.26,1.4,.26,.46,0,.92-.18,1.37-.54,.44-.36,.67-.97,.67-1.84V1.08h3.67V22c0,.83-.14,1.54-.41,2.13-.27,.59-.66,1.08-1.17,1.46-.51,.39-1.1,.67-1.79,.84-.69,.17-1.43,.26-2.21,.26-.63,0-1.24-.08-1.84-.23-.6-.16-1.12-.35-1.56-.57-.45-.22-.8-.43-1.06-.64l1.91-2.41c.26,.28,.61,.5,1.03,.68Z"/><path class="cls-1" d="M27.49,1.08V20.43h-3.64V1.08h3.64Z"/><path class="cls-1" d="M44.87,1.08V17.5h8.43v2.93h-12.01V1.08h3.58Z"/><path class="cls-1" d="M68.56,1.08V17.5h8.43v2.93h-12.01V1.08h3.58Z"/><path class="cls-1" d="M96.74,1.08h15.59l-10.71,16.42h9.89v2.93h-15.71l10.65-16.34h-9.71V1.08Z"/><path class="cls-1" d="M127.84,1.08V20.43h-3.52V1.08h3.52Zm-1.3,0h10.71V3.95h-10.71V1.08Zm0,7.57h10.1v2.82h-10.1v-2.82Zm0,8.9h10.71v2.88h-10.71v-2.88Z"/><path class="cls-1" d="M169.76,1.08V21.4l-15.5-13.96v12.99h-3.52V.11l15.5,13.96V1.08h3.52Z"/><path class="cls-1" d="M187.27,1.08V20.43h-3.67V1.08h3.67Zm-1.46,19.35v-3.07h4.55c1.05,0,2.02-.14,2.91-.43,.89-.29,1.66-.7,2.32-1.24,.66-.54,1.17-1.23,1.55-2.06,.37-.83,.56-1.79,.56-2.88s-.19-2.05-.56-2.88c-.37-.83-.89-1.52-1.55-2.07-.66-.55-1.43-.97-2.32-1.24-.89-.28-1.86-.42-2.91-.42h-4.55V1.08h4.64c2.16,0,4.07,.4,5.7,1.2,1.64,.8,2.92,1.93,3.84,3.37s1.38,3.15,1.38,5.1-.46,3.65-1.38,5.1c-.92,1.45-2.2,2.57-3.84,3.37-1.64,.8-3.54,1.2-5.7,1.2h-4.64Z"/><path class="cls-1" d="M217.48,1.08V20.43h-3.52V1.08h3.52Zm-1.3,0h10.71V3.95h-10.71V1.08Zm0,7.57h10.1v2.82h-10.1v-2.82Zm0,8.9h10.71v2.88h-10.71v-2.88Z"/><path class="cls-1" d="M243.97,1.08V20.43h-3.58V1.08h3.58Zm-1.46,0h4.43c1.56,0,2.9,.25,4.04,.75,1.13,.5,2.02,1.19,2.65,2.09,.64,.89,.96,1.95,.96,3.17s-.32,2.28-.96,3.18c-.64,.9-1.52,1.6-2.65,2.1s-2.48,.75-4.04,.75h-4.43v-2.71h4.28c.83,0,1.55-.12,2.15-.37,.61-.25,1.08-.62,1.43-1.11,.34-.49,.52-1.07,.52-1.76s-.17-1.29-.52-1.77c-.34-.48-.82-.85-1.43-1.11-.61-.26-1.33-.39-2.15-.39h-4.28V1.08Zm6.13,10.12l7.22,9.23h-4.34l-6.73-9.23h3.85Z"/><path class="cls-1" d="M272.3,13.66l-.06,.72-2.94,6.05h-4.04L275.64,0l10.41,20.43h-4.06l-2.88-5.89-.06-.8-3.4-7.19-3.34,7.1Zm-1.52-.97h9.86l.67,2.76h-11.22l.7-2.76Z"/></g></g></g></svg>