<svg width="400" height="416" viewBox="0 0 400 416" fill="none" xmlns="http://www.w3.org/2000/svg">
<path d="M163.425 125.444C165.232 130.505 168.485 132.313 170.293 135.566C173.908 140.989 173.546 142.435 167.762 144.965C159.448 148.941 151.495 152.918 143.181 156.894C140.65 157.979 137.397 159.425 138.482 163.04C139.566 166.654 142.096 167.016 145.35 166.654C147.519 166.654 149.688 166.654 151.857 166.654C161.979 166.654 167.039 171.715 167.401 181.837C167.762 193.043 164.87 203.527 163.063 214.01C161.617 221.24 159.81 228.469 159.087 236.061C157.279 253.051 162.702 269.679 173.908 282.332C183.307 292.092 188.729 305.106 190.175 318.481C190.536 324.265 190.537 330.048 189.814 335.832C189.452 338.363 189.091 340.532 185.837 340.532C182.584 340.532 182.945 338.001 182.945 335.471C183.668 328.241 183.668 320.65 182.584 313.42C180.415 302.214 173.908 293.176 167.039 284.501C155.833 271.125 150.772 254.135 152.218 236.784C152.941 228.831 154.387 220.517 156.195 212.564C158.364 203.888 159.81 195.212 160.533 186.175C161.256 176.053 159.087 173.523 148.965 173.523C146.434 173.523 144.265 173.523 141.735 173.523C136.674 173.161 132.336 169.546 131.252 164.486C129.806 159.425 132.336 154.002 137.397 151.472C141.735 148.941 146.434 146.772 151.134 144.965C154.026 143.881 154.026 142.435 152.218 140.266C150.772 138.82 149.326 137.012 147.88 135.566C145.711 133.036 144.988 129.421 146.796 126.529C148.242 123.637 151.134 121.83 154.387 122.191C155.833 122.553 157.641 122.553 159.087 121.83C165.232 117.853 167.762 118.215 172.823 123.276C184.391 134.843 190.175 149.303 193.79 164.847C197.405 182.56 198.128 200.996 195.959 219.071C195.597 223.047 196.682 223.77 200.297 223.77C215.841 223.409 231.747 223.409 247.291 223.77C258.497 223.77 269.703 226.662 279.825 232.084C287.055 236.061 292.478 242.206 295.008 249.797C296.815 255.22 295.731 259.558 291.755 261.727C287.055 264.257 283.44 268.956 282.717 274.379V274.74C281.271 283.416 283.44 292.092 288.14 299.322C289.224 301.129 289.586 303.298 289.224 305.467C287.778 315.227 286.694 325.349 285.609 335.109C285.248 337.64 285.248 341.255 281.271 340.532C277.295 339.809 278.379 336.555 278.741 334.025C279.825 324.988 281.271 315.95 282.356 306.913C282.717 305.106 282.356 302.937 280.91 301.491C274.764 294.261 273.68 285.947 275.487 276.909C277.295 267.872 278.379 259.196 274.041 250.52C273.318 249.074 273.68 247.267 275.126 246.183C275.487 246.183 275.487 245.821 275.849 245.821C277.656 245.098 279.464 245.821 280.187 247.267V247.628C280.91 249.436 281.633 251.243 282.356 253.051C283.079 254.858 284.163 257.027 286.694 255.943C289.224 254.858 287.778 253.051 287.417 251.243C284.163 244.014 278.379 238.23 270.788 235.699C261.389 232.084 251.267 230.277 241.146 230.277C225.24 230.277 209.334 230.277 193.79 230.277C188.729 230.277 187.283 228.831 188.006 223.77C191.259 203.165 190.537 182.199 185.837 161.955C183.307 151.11 178.246 140.627 171.377 131.59C169.208 129.421 166.678 126.89 163.425 125.444ZM154.026 129.059C152.941 129.421 152.58 130.505 153.303 131.59L159.81 139.543C160.533 140.266 161.617 140.266 162.34 139.904C162.702 139.543 163.063 139.181 163.425 138.82C160.894 134.482 157.641 131.228 154.026 129.059Z" fill="#23254E"/>
<path d="M198.231 314.152C198.231 307.284 198.231 300.777 198.231 293.909C198.231 289.932 199.677 288.848 203.653 288.486C217.752 288.848 231.488 285.594 244.141 279.81C245.948 278.364 248.478 278.726 249.924 280.533C250.286 280.895 250.647 281.618 250.647 282.341C254.262 291.017 261.131 298.247 269.445 302.946C271.614 304.031 273.06 306.199 272.698 308.73C272.337 318.129 271.975 327.166 271.614 336.565C271.614 339.095 270.891 340.903 267.999 340.903C265.107 340.903 264.746 338.372 264.746 336.203C265.107 328.251 265.469 320.659 265.83 312.706C266.192 310.899 265.469 308.73 263.661 307.645C256.793 303.308 251.37 297.524 247.394 290.294C246.309 288.125 245.225 287.402 242.695 288.486C232.211 292.824 220.643 295.355 209.437 295.355C205.822 295.355 205.461 296.801 205.461 300.054C205.461 311.622 205.461 323.19 205.461 335.119C205.461 337.649 205.822 340.903 202.207 340.541C198.592 340.18 198.592 337.649 198.592 335.119C198.231 328.251 198.231 321.382 198.231 314.152Z" fill="#23254E"/>
<path d="M266.415 337.313H281.959" stroke="#23254E" stroke-width="1.88" stroke-miterlimit="10"/>
<path d="M167.362 154.921C168.959 154.921 170.254 154.436 170.254 153.837C170.254 153.238 168.959 152.752 167.362 152.752C165.764 152.752 164.47 153.238 164.47 153.837C164.47 154.436 165.764 154.921 167.362 154.921Z" stroke="#23254E" stroke-width="1.18" stroke-miterlimit="10"/>
<path d="M242.958 272.651C245.126 278.074 247.657 283.134 250.549 288.195" stroke="#23254E" stroke-width="1.53" stroke-miterlimit="10"/>
<path d="M192.21 269.962C195.825 277.553 198.717 285.867 200.524 294.182" stroke="#23254E" stroke-width="1.53" stroke-miterlimit="10"/>
<path d="M34.3643 198.445V413.894H387.542V198.445" stroke="#23254E" stroke-width="2.35" stroke-miterlimit="10"/>
<path d="M0 164.436L0.722984 159.737L17.3516 162.629L18.7976 154.314L23.497 155.037L22.051 163.352L39.7641 166.605C40.4871 166.605 41.5716 166.605 42.2945 166.244C43.0175 165.882 43.379 165.521 43.7405 164.798C43.7405 164.436 44.102 164.075 44.102 164.075V163.713C44.102 162.99 44.102 161.906 43.7405 160.098V159.737C46.271 159.014 47.7169 158.652 48.0784 158.652C48.0784 159.014 48.4399 159.737 48.4399 160.821C48.4399 162.267 48.8014 163.713 48.4399 164.436V165.159C48.0784 166.244 47.7169 167.328 46.6324 168.774C45.548 170.22 43.7405 171.305 41.9331 171.666C40.8486 172.028 39.4026 172.028 37.9566 171.666L20.2435 168.413L19.1591 173.474L14.4597 172.751L15.5442 167.69L0 164.436Z" fill="#23254E"/>
<path d="M4.89307 138.962L6.33903 134.624L25.8596 140.77C24.4136 137.516 24.0521 134.263 25.1366 131.009C27.3056 124.864 30.559 121.611 35.6199 120.888C37.0658 120.888 38.8733 120.888 40.3193 121.611L59.1168 127.756L57.6709 132.094L38.8733 125.949C35.2584 124.864 32.7279 125.949 30.559 129.564C30.1975 129.925 29.836 130.648 29.4745 131.732L29.113 133.178C28.0285 136.793 28.39 139.685 30.559 141.854C31.282 142.577 32.3664 142.939 33.4509 143.3L52.2485 149.446L50.8025 153.784L4.89307 138.962Z" fill="#23254E"/>
<path d="M41.2098 94.0295C43.3788 90.0531 46.9937 87.5226 52.0546 86.7996C56.031 86.4381 58.923 87.1611 61.8149 88.6071L62.1764 88.9686C62.8994 89.3301 63.6224 89.6916 63.2609 90.0531L50.9701 112.104C52.0546 112.466 53.5006 112.827 55.6695 113.189C58.5615 113.189 61.0919 112.466 62.8994 110.658C63.9839 109.935 64.7068 108.851 65.0683 108.128C66.5143 105.597 66.5143 102.705 65.4298 99.4519C64.7069 98.3674 64.3454 97.2829 63.9839 96.9214C65.4298 95.8369 66.5143 94.7525 67.5988 94.0295C68.6833 95.114 69.4063 96.9214 70.1292 99.0904C71.2137 103.067 70.8522 107.043 69.0448 110.297C66.8758 114.273 63.2609 116.803 57.8385 117.888C54.2236 118.249 50.6086 117.526 47.7167 116.081H47.3552C43.3788 113.912 40.8483 110.658 39.4024 106.32C38.6794 101.259 39.0409 97.6444 41.2098 94.0295ZM47.3552 108.851L57.1155 91.499C54.2236 90.7761 51.3316 91.1376 49.1627 92.5835C47.3552 93.668 46.2707 94.7525 45.1862 96.5599C43.7403 99.4519 43.7403 102.705 45.1862 105.959C45.5477 107.043 46.2707 108.128 47.3552 108.851Z" fill="#23254E"/>
<path d="M56.6504 44.4654L59.9038 41.2119L71.8331 53.1412L77.9785 46.9958L81.2319 50.2492L75.0865 56.7561L87.7388 69.7699C88.4618 70.4929 89.1847 70.8543 89.9077 71.2158C90.6307 71.2158 91.3537 71.2158 92.0767 70.8543C92.4382 70.8543 92.7997 70.4928 92.7997 70.4928C93.5227 69.7699 93.8842 69.0469 94.6071 67.6009V67.2394C97.1376 68.3239 98.5836 68.6854 98.9451 69.0469C98.9451 69.4084 98.5836 70.1314 98.2221 70.8543C97.4991 72.3003 96.7761 73.3848 96.0531 73.7463L95.6916 74.1078C94.9686 74.8308 93.8842 75.5537 92.4382 75.9152C90.6307 76.6382 88.8233 76.2767 87.0158 75.5538C85.9313 75.1923 84.8468 74.4693 83.7624 73.3848L71.1101 60.7325L67.4952 64.3475L64.9647 60.371L68.5797 56.7561L56.6504 44.4654Z" fill="#23254E"/>
<path d="M78.3301 24.9801L81.945 22.4497L93.1512 39.8013C93.8742 36.5479 95.6817 33.6559 98.9351 31.8485C104.357 28.2336 109.057 27.8721 113.395 30.764C114.841 31.487 115.925 32.933 116.648 34.0174L127.493 50.646L123.878 53.1765L113.033 36.5479C111.226 33.2944 107.972 32.5715 104.357 34.0174C103.996 34.3789 102.912 34.7404 102.189 35.1019L101.104 35.8249C97.8506 37.9938 96.4047 40.1628 96.7662 43.4162C97.1277 44.5007 97.4892 45.5852 98.2121 46.6696L108.695 62.9367L105.08 65.4672L78.3301 24.9801Z" fill="#23254E"/>
<path d="M135.264 13.9023C139.602 12.4563 143.94 12.8178 148.278 15.7098C151.532 17.8787 153.339 20.4092 154.424 23.3011V23.6626C154.785 24.7471 154.785 25.1086 154.785 25.1086L130.927 33.7844C131.288 34.8689 132.373 35.9534 133.818 37.3994C135.987 39.2068 138.156 40.2913 141.048 40.2913C142.494 40.2913 143.579 39.9298 144.302 39.5683C147.194 38.4838 149.001 36.3149 150.447 33.0614C150.809 31.977 151.17 30.8925 151.17 30.1695C152.978 30.1695 154.785 30.1695 155.87 30.531C155.87 31.977 155.508 33.7844 154.424 36.3149C152.616 40.2913 149.724 42.8218 146.109 44.2677C141.771 45.7137 137.433 45.3522 132.734 42.4603C129.481 40.2913 127.673 37.7608 126.227 34.5074V34.1459C124.781 29.808 124.781 25.8316 126.589 21.4936C128.758 17.8787 131.65 14.9868 135.264 13.9023ZM130.204 29.085L149.001 22.2166C147.194 19.6862 145.025 18.2402 142.494 17.8787C140.687 17.5172 138.879 17.5172 137.072 18.2402C134.18 19.3247 132.011 21.8551 130.927 25.4701C130.204 26.5546 130.204 27.639 130.204 29.085Z" fill="#23254E"/>
<path d="M173.021 3.74331C175.19 3.38182 177.359 3.38181 179.528 4.1048V9.1657C176.997 8.44272 175.19 8.44271 173.382 8.80421C169.767 9.52719 167.599 11.6962 166.876 15.3111C166.876 16.0341 166.876 17.1185 166.876 17.8415L170.49 36.6392L166.153 37.7236L160.369 7.35824L164.707 6.27376L165.068 8.80421C165.791 7.35824 166.876 5.91226 168.683 5.18928C170.129 4.46629 171.575 4.1048 173.021 3.74331Z" fill="#23254E"/>
<path d="M201.618 0.361493C205.955 -3.50133e-07 209.57 1.80746 212.462 5.0609V5.4224L212.101 0.361493L216.8 0L218.608 31.4499L214.27 31.8114L213.908 26.7505C211.739 30.7269 208.124 32.5344 203.425 32.8959C198.726 32.8959 194.749 31.4499 191.496 28.1965C188.604 25.3045 187.158 21.6896 186.796 17.7132V17.3517C186.435 13.0137 187.881 9.39882 190.773 5.78389C193.665 2.53045 197.28 0.722986 201.618 0.361493ZM191.496 16.9902C191.857 20.9666 193.303 23.8585 196.557 26.0275C198.364 27.4735 200.533 27.835 203.063 27.835C207.763 27.4735 211.016 24.943 212.462 20.2436C212.824 18.7976 213.185 17.3517 212.824 15.9057V15.1827C212.824 13.3752 212.101 11.2063 210.655 9.39882C208.486 6.14538 205.594 4.69941 201.979 5.0609C197.28 5.42239 194.026 7.59135 192.219 12.2908C191.496 14.0982 191.496 15.5442 191.496 16.9902Z" fill="#23254E"/>
<path d="M247.153 3.18441C251.129 3.90739 254.021 6.07634 256.552 9.32976C257.998 11.1372 258.721 12.9447 259.082 14.7521C259.805 17.2826 259.805 19.4515 259.444 21.6205V22.3435C258.721 26.3199 256.552 29.5733 252.937 32.4652C249.322 34.9957 245.345 35.7186 241.007 34.9957C236.67 34.2727 233.778 31.7422 231.609 27.7658V27.4043L227.994 46.5634L223.656 45.8404L232.332 1.37695L236.67 2.09994L235.947 6.79933C238.477 3.18441 242.453 2.09994 247.153 3.18441ZM233.778 16.9211C233.055 19.813 233.778 22.705 235.224 25.2354C236.67 27.7658 238.838 29.2118 241.73 29.9348C246.068 30.6578 249.683 29.5733 252.575 25.9584C253.66 24.5124 254.383 22.7049 254.744 21.259V20.8975C255.467 18.0056 254.744 15.1136 252.937 12.2217C251.129 10.0527 248.96 8.60678 246.43 7.8838C241.73 6.79933 238.115 8.60678 235.224 12.9447C234.501 14.0292 234.139 15.4751 233.778 16.9211Z" fill="#23254E"/>
<path d="M274.959 10.9774C274.959 10.9774 274.959 12.4233 274.959 14.9538L275.321 38.4507C275.321 38.4507 277.851 36.2818 282.189 31.5824C290.503 23.2681 294.48 19.2917 294.841 19.2917L299.541 21.0991L267.729 52.5489L264.114 56.1638L259.415 54.3564L270.983 42.7886L270.26 9.16992L274.959 10.9774Z" fill="#23254E"/>
<path d="M336.927 45.7663C339.819 48.2968 341.626 51.5502 341.988 55.8881C341.988 58.0571 341.988 60.226 341.626 61.672C340.903 64.2024 339.819 66.0099 338.373 67.8174L338.012 68.5403C335.481 71.7938 331.866 73.6012 327.167 73.9627C322.829 74.3242 318.852 72.8782 315.599 70.3478C312.346 67.4559 310.9 63.8409 311.261 59.503V59.1415L298.609 73.9627L295.355 71.0708L324.636 36.729L327.89 39.6209L324.998 43.2359C329.336 41.7899 333.312 42.8744 336.927 45.7663ZM318.491 51.1887C316.684 53.3577 315.599 56.2496 315.599 59.1415C315.599 62.0335 316.684 64.5639 318.852 66.3714C322.106 69.2633 326.082 69.9863 330.42 68.1788C332.228 67.4559 333.674 66.3714 334.758 64.9254L335.12 64.5639C336.927 62.395 338.012 59.503 337.65 55.8881C337.289 52.9962 336.204 50.8272 334.035 49.0197C330.42 45.7663 326.444 45.4048 322.106 47.9353C320.66 49.0197 319.575 50.1042 318.491 51.1887Z" fill="#23254E"/>
<path d="M369.091 54.502L371.983 58.1169L334.388 89.2052L331.496 85.5903L369.091 54.502Z" fill="#23254E"/>
<path d="M374.521 91.5414C376.69 95.1563 377.051 99.1327 374.882 103.109V103.471L379.22 100.94L381.389 104.917L354.277 120.461L352.108 116.484L356.446 113.954C352.108 113.592 348.493 111.423 346.324 107.447C344.155 103.832 343.794 99.4942 345.24 95.1563C346.686 91.1799 349.216 88.288 352.47 86.4805L352.831 86.119C356.446 83.95 360.423 83.5885 364.761 84.3115C369.098 85.0345 372.352 87.565 374.521 91.5414ZM355 89.7339C351.747 91.5414 349.578 94.4333 349.216 98.4097C348.855 100.579 349.216 102.748 350.301 104.917C352.831 109.255 356.446 110.7 361.507 109.978C362.953 109.616 364.399 109.255 365.484 108.532L366.207 108.17C368.014 107.086 369.46 105.64 370.544 103.471C372.352 100.217 372.352 96.9638 370.544 93.7103C368.375 89.7339 364.761 87.9265 359.7 88.288C357.892 88.6494 356.446 89.0109 355 89.7339Z" fill="#23254E"/>
<path d="M391.403 129.644L391.764 130.367C392.849 133.62 392.487 136.874 391.403 140.489C390.68 142.296 389.595 143.381 389.234 144.104L385.619 141.212C387.065 139.404 388.15 136.874 388.15 134.343C388.15 133.259 388.15 132.536 387.788 131.451V131.09C387.065 128.559 385.258 126.752 382.366 125.306C379.474 124.222 376.582 123.86 374.051 124.945C371.159 126.029 368.629 127.836 367.183 131.09C366.098 133.62 365.737 136.151 366.821 138.681C367.906 141.935 370.075 144.104 373.328 145.188L374.051 145.55L372.967 149.888C369.352 149.165 366.46 146.996 364.291 144.104C363.206 142.658 362.483 141.212 362.122 140.127C361.037 136.512 361.037 132.897 362.845 128.921C365.014 124.583 368.267 122.053 372.244 120.607H372.605C376.582 119.161 380.92 119.522 385.258 121.691C387.788 123.499 390.318 126.391 391.403 129.644Z" fill="#23254E"/>
<path d="M399.818 164.835C400.541 169.173 399.095 173.51 395.841 177.487C392.949 180.017 390.057 181.825 387.166 182.186H386.804C385.72 182.186 385.358 182.186 385.358 182.186L381.382 157.243C380.297 157.243 378.851 157.966 377.044 159.412C374.875 161.22 373.429 163.389 372.706 165.919C372.344 167.365 372.344 168.45 372.706 169.173C373.067 172.065 374.875 174.595 377.767 176.402C378.851 177.125 379.936 177.487 380.659 177.487C380.297 179.294 379.936 180.74 379.574 181.825C378.128 181.463 376.321 180.74 374.152 179.294C370.537 176.764 368.729 173.51 368.006 169.534C367.283 164.835 368.729 160.858 371.983 156.882C374.513 154.351 377.767 152.544 381.02 152.183H381.382C385.72 151.46 389.696 152.544 393.672 155.074C397.287 157.605 399.456 160.858 399.818 164.835ZM385.72 156.882L388.973 176.402C391.865 174.956 393.672 173.149 394.395 170.619C395.118 168.811 395.48 167.004 395.118 165.196C394.757 161.943 392.588 159.412 389.334 157.605C388.25 157.243 387.166 156.882 385.72 156.882Z" fill="#23254E"/>
<path d="M197.288 229.951C197.288 232.12 198.011 245.133 208.856 254.532C216.809 261.401 225.846 262.485 229.099 262.847C232.714 263.208 241.752 263.208 250.427 257.424C254.765 254.532 258.019 250.917 259.826 248.387C265.61 240.434 266.333 231.758 266.333 228.505" stroke="#23254E" stroke-width="1.88" stroke-miterlimit="10"/>
<path d="M206.273 228.505C206.273 228.505 205.912 251.64 231.578 253.809C231.578 253.809 255.075 254.894 256.882 228.505" stroke="#23254E" stroke-width="1.88" stroke-miterlimit="10"/>
<path d="M217.982 228.505C217.982 228.505 217.259 241.157 231.719 242.241C231.719 242.241 243.648 242.603 245.455 228.505" stroke="#23254E" stroke-width="1.88" stroke-miterlimit="10"/>
<path d="M184.983 337.267H201.251V297.864" stroke="#23254E" stroke-width="1.88" stroke-miterlimit="10"/>
</svg>
